# xmcd
#
# Track frame offsets:
#	150
#	14738
#	28625
#	43008
#	59000
#	73463
#	89945
#	108850
#	122643
#	140008
#
# Disc length: 2084 seconds
#
# Revision: 9
# Processed by: cddbd v1.5.2PL0 Copyright (c) Steve Scherf et al.
# Submitted via: EasyCDDAExtractor 15.3.0.1
#
DISCID=9e08220a
DTITLE=Selena - Entre A Mi Mundo
DYEAR=1992
DGENRE=Latin
TTITLE0=Si La Quieres
TTITLE1=Como La Flor
TTITLE2=Yo Te Sigo Queriendo
TTITLE3=Que Creias
TTITLE4=Las Cadenas
TTITLE5=Vuelve A Mi
TTITLE6=La Carcacha
TTITLE7=Siempre Estoy Pensando En Ti
TTITLE8=Missing My Baby
TTITLE9=Amame
EXTD=
EXTT0=
EXTT1=
EXTT2=
EXTT3=
EXTT4=
EXTT5=
EXTT6=
EXTT7=
EXTT8=
EXTT9=
PLAYORDER=
